        <svg version="1.1" id="Layer_1" xmlns="http://www.w3.org/2000/svg" 
        xmlns:xlink="http://www.w3.org/1999/xlink" x="0px" y="0px"
	 width="100%" viewBox="0 0 1024 1024" enable-background="new 0 0 1024 1024" xml:space="preserve">
<path fill="#fff" opacity="1.000000" stroke="none" 
	d="
M587.671875,303.620392 
	C597.968567,302.099182 607.128906,299.469177 614.442200,291.810059 
	C618.130005,287.947815 623.477661,286.261169 629.152283,286.767670 
	C631.503174,286.977539 633.067688,287.674408 632.344360,290.478760 
	C632.000366,291.812408 632.021729,293.220154 632.807312,294.351044 
	C636.421326,299.553925 635.455750,305.011841 633.034607,310.055939 
	C630.266479,315.822845 632.342896,320.291473 635.481567,324.821472 
	C636.710327,326.595032 637.778687,328.508850 639.193481,330.118500 
	C642.375488,333.738739 640.888367,335.785522 636.990540,336.851776 
	C627.333008,339.493652 621.684814,346.577545 617.241455,354.797882 
	C611.574585,365.281738 607.222351,376.041504 608.917297,388.553986 
	C609.862061,395.527954 604.745483,401.631104 598.392029,402.991669 
	C592.803528,404.188477 586.619324,400.701019 584.332275,395.062988 
	C581.582764,388.285248 583.665405,382.361237 589.875244,378.262756 
	C600.743408,371.089752 605.569885,359.811249 608.563965,347.989838 
	C612.734131,331.525421 607.694641,325.087830 591.006775,321.055237 
	C571.386963,316.314056 551.791260,316.844727 531.992065,319.077087 
	C525.122375,319.851624 521.356750,322.968567 519.051819,329.454529 
	C515.032227,340.765747 506.998779,348.388916 495.501831,352.241028 
	C490.620300,353.876678 485.573669,353.681915 480.637482,353.300018 
	C469.932892,352.471893 460.588623,356.059906 451.926331,361.667725 
	C433.810272,373.395660 419.722961,389.467316 405.616272,405.467590 
	C400.444183,411.333984 395.580292,417.399933 391.691742,424.301941 
	C386.933899,432.746826 384.574524,441.411621 386.565948,451.020752 
	C387.014252,453.183960 387.151489,455.355865 386.624390,457.467407 
	C383.990723,468.017761 387.935272,477.121643 393.045044,485.831055 
	C399.094177,496.141541 407.543427,504.480743 416.255615,512.503601 
	C426.667084,522.091309 436.880737,531.966064 448.989655,539.473816 
	C458.677368,545.480408 468.822937,548.803589 480.721985,547.116272 
	C492.284302,545.476807 503.153137,549.119080 511.236633,557.720215 
	C520.179810,567.236023 531.143005,570.577576 543.523438,570.823975 
	C561.702026,571.185791 579.803101,570.479065 597.501709,565.703125 
	C607.025269,563.133118 615.268127,558.744141 621.808899,550.927612 
	C630.615051,540.403870 645.822510,537.678040 657.696533,543.721008 
	C669.767639,549.864258 675.825989,562.917542 673.132324,576.978455 
	C670.801331,589.145935 659.419861,599.095703 646.242004,600.141418 
	C639.408020,600.683777 632.415222,599.574341 627.495239,594.804626 
	C618.160461,585.754883 606.697144,583.066284 594.597656,582.563904 
	C574.026917,581.709900 553.678284,583.497681 534.207825,590.914856 
	C527.244446,593.567444 521.332703,597.711853 516.819153,603.844299 
	C505.969757,618.584961 491.413086,624.188293 475.543304,619.969727 
	C459.725189,615.764832 449.304260,603.716919 448.333221,585.210510 
	C447.452881,568.433533 440.398590,555.251526 429.390442,543.511108 
	C413.263641,526.311584 395.962341,510.468475 375.318329,498.770844 
	C367.504608,494.343323 359.098541,493.025269 349.845184,493.876495 
	C331.906311,495.526672 312.503021,482.280029 310.809570,459.950256 
	C308.973358,435.738892 325.963470,417.789642 350.212097,417.780090 
	C361.054718,417.775818 370.513611,413.912292 378.843323,407.537231 
	C402.647949,389.318726 424.233124,368.865204 440.465393,343.366394 
	C445.379486,335.646973 448.014923,327.157166 447.716431,317.820557 
	C447.139648,299.779083 459.729156,286.197052 472.767883,281.784943 
	C487.944336,276.649475 504.662811,282.092316 514.230164,295.759705 
	C519.104858,302.723358 526.414551,303.651733 533.485229,304.486603 
	C551.392395,306.601105 569.355469,306.250916 587.671875,303.620392 
M646.548706,545.333557 
	C645.344421,545.503052 644.006287,544.796387 642.168457,546.477112 
	C652.011597,546.149231 658.484924,551.232178 664.329041,557.528442 
	C660.871338,550.291443 654.505188,547.237671 646.548706,545.333557 
z"/>
<path fill="#fff" opacity="1.000000" stroke="none" 
	d="
M403.385284,415.427917 
	C414.218903,401.601257 426.334991,389.447083 438.909546,377.786102 
	C448.372650,369.010559 458.791809,361.592804 472.001770,359.238953 
	C474.842865,358.732727 477.634552,358.567749 480.440277,358.840363 
	C501.581299,360.894409 517.859863,347.850311 524.463745,330.440063 
	C526.024841,326.324371 528.184753,324.654022 532.432190,324.545685 
	C535.903381,324.457153 539.344788,323.520721 542.819702,323.150146 
	C545.376770,322.877411 548.037109,322.499939 550.724243,324.279114 
	C547.070618,326.484863 543.156372,325.656036 539.757507,326.970062 
	C538.363831,327.508911 536.869934,327.782593 535.452271,328.266571 
	C529.371643,330.342468 515.677856,350.820221 516.157410,357.271942 
	C516.265015,358.718353 516.820740,360.187592 517.425659,361.531219 
	C520.062378,367.387421 518.582214,369.709961 512.127441,369.019348 
	C505.636932,368.324921 499.228699,368.127258 492.722534,368.990326 
	C465.696808,372.575287 446.230804,386.793121 433.721680,410.752319 
	C429.776306,418.309021 426.855103,426.296265 426.296539,434.925598 
	C426.129150,437.511627 424.762543,438.574646 422.516174,439.506104 
	C415.939667,442.232941 413.632355,445.703949 414.061249,451.490692 
	C414.506866,457.502563 418.073456,462.060120 424.339966,463.424683 
	C427.516296,464.116302 428.572266,465.790070 429.587891,468.507874 
	C440.097198,496.630066 460.491760,514.165100 489.663971,519.099243 
	C519.279785,524.108337 543.502991,512.497925 561.800781,488.796539 
	C569.245178,479.153717 577.736816,476.181122 589.449646,479.828613 
	C595.862549,481.825684 601.851562,484.653137 606.691101,489.535400 
	C613.593872,496.499023 615.098450,503.389648 610.908020,512.249756 
	C603.993652,526.869385 592.906006,538.122314 580.844788,548.524109 
	C575.010071,553.556030 568.485291,557.579346 561.787109,561.308777 
	C548.883789,568.493042 527.896729,565.967041 517.329895,555.530212 
	C506.266144,544.602661 493.205048,539.559875 477.872467,541.533203 
	C468.853912,542.693726 460.887604,540.514038 453.690460,535.706177 
	C432.775024,521.734253 414.199127,505.121582 399.066925,484.926727 
	C393.652802,477.701294 390.557892,469.566772 391.632568,460.185059 
	C392.239166,454.889771 391.648499,449.554932 391.347137,444.225922 
	C390.928131,436.817963 393.977509,430.258820 397.620117,424.023926 
	C399.297455,421.152893 401.303253,418.473755 403.385284,415.427917 
z"/>
<path fill="#fff" opacity="1.000000" stroke="none" 
	d="
M507.039185,484.194824 
	C517.330750,486.060181 526.340576,484.468323 533.792664,477.189087 
	C535.076904,475.934601 536.510559,475.006805 538.239441,475.941742 
	C541.113831,477.496124 544.341553,478.490204 546.738342,480.778046 
	C541.949341,492.344788 521.505920,502.222717 506.375061,501.136688 
	C480.407013,499.272797 465.697815,481.354187 462.696533,468.860168 
	C463.231415,467.445526 464.622528,467.800385 465.660095,467.439972 
	C471.946320,465.256226 476.421783,459.668030 476.838531,453.456299 
	C477.352722,445.791748 474.092468,439.699738 467.775818,436.521851 
	C462.147369,433.690216 462.279633,433.753906 465.079865,427.936981 
	C478.845398,399.341736 512.804626,394.931702 535.565979,408.865692 
	C539.306946,411.155823 542.291443,414.290314 545.232605,417.480713 
	C546.966675,419.361664 547.074951,420.930267 544.558350,422.195709 
	C543.219849,422.868774 541.790283,423.458008 540.633362,424.376678 
	C537.428162,426.921844 535.189880,426.215668 532.120422,423.500732 
	C517.484070,410.554901 495.009521,416.828796 486.959412,435.839752 
	C478.713257,455.313690 487.788361,477.532990 507.039185,484.194824 
z"/>
<path fill="#fff" opacity="1.000000" stroke="none" 
	d="
M442.631989,713.999878 
	C442.642242,701.513245 442.789124,689.524353 442.586914,677.541321 
	C442.517426,673.425049 443.920776,671.848633 448.030365,671.985779 
	C458.836609,672.346558 469.676086,671.385498 480.460999,672.535278 
	C492.904816,673.861877 500.548584,679.900269 502.842987,690.490723 
	C505.065765,700.750549 501.876862,712.502380 490.664520,717.919556 
	C490.093933,718.195190 489.617767,718.666260 488.571899,719.430481 
	C493.942017,727.420898 499.245972,735.312866 504.549927,743.204834 
	C504.314209,743.685608 504.078522,744.166382 503.842804,744.647156 
	C498.915131,744.647156 493.987152,744.678040 489.059937,744.630371 
	C487.329437,744.613647 486.540924,743.236877 485.686310,741.985962 
	C481.743347,736.214844 477.809601,730.436951 473.808533,724.706116 
	C471.992767,722.105347 461.489166,720.712585 459.175751,722.698303 
	C458.031006,723.680847 458.116852,725.087463 458.098938,726.403259 
	C458.035461,731.063904 457.973633,735.725525 458.004364,740.386169 
	C458.023041,743.214294 457.113251,744.640930 453.913757,744.488892 
	C441.094360,743.879700 442.777191,746.552368 442.637695,733.478882 
	C442.570160,727.153259 442.629700,720.826294 442.631989,713.999878 
M458.618011,706.728516 
	C464.526642,709.333679 470.709381,707.731384 476.747070,707.722717 
	C483.940826,707.712341 487.895721,703.612793 487.891876,697.109253 
	C487.888123,690.666870 483.873322,686.724915 476.645874,686.413391 
	C471.825500,686.205688 466.988281,686.423950 462.161835,686.311707 
	C459.206451,686.242981 457.854675,687.501465 457.935089,690.451965 
	C458.075592,695.605652 458.156281,700.760986 458.618011,706.728516 
z"/>
<path fill="#fff" opacity="1.000000" stroke="none" 
	d="
M623.005920,744.364624 
	C598.879089,750.653442 580.750916,736.803223 580.681763,712.395203 
	C580.649719,701.070251 580.900513,689.738403 580.563538,678.423401 
	C580.424683,673.761353 582.246033,672.438599 586.496033,672.140198 
	C595.679871,671.495483 596.221313,671.830322 596.226379,680.826599 
	C596.232117,690.985779 596.246033,701.144897 596.278992,711.304077 
	C596.284424,712.966919 596.240906,714.655884 596.501648,716.287781 
	C598.086853,726.209290 604.709045,732.103760 613.639832,731.645386 
	C622.493042,731.190918 629.337463,724.090881 629.604858,714.301025 
	C629.932129,702.318115 629.954956,690.316223 629.676025,678.332642 
	C629.562134,673.437927 631.358276,671.583923 636.012573,672.013733 
	C636.507690,672.059509 637.011169,672.014343 637.510803,672.011658 
	C645.288635,671.970459 645.300720,671.970398 645.301880,679.583740 
	C645.303589,690.908691 645.445374,702.236572 645.237793,713.557861 
	C644.960693,728.670044 637.207947,739.390808 623.005920,744.364624 
z"/>
<path fill="#fff" opacity="1.000000" stroke="none" 
	d="
M684.224731,731.765991 
	C687.652283,731.824219 690.666748,732.100647 693.449219,730.579956 
	C698.726074,727.696106 699.041321,722.519531 694.110718,719.061035 
	C691.594849,717.296509 688.587830,716.820923 685.716919,716.003479 
	C681.720886,714.865723 677.653992,713.937073 673.732117,712.585938 
	C663.465881,709.049072 658.021851,701.487427 658.824402,692.224121 
	C659.760681,681.416626 666.374023,673.915955 676.950073,671.869690 
	C688.298279,669.674133 698.707581,672.426270 708.539124,678.088928 
	C710.820435,679.402954 711.389221,680.737122 709.970337,683.309265 
	C705.130676,692.083008 705.240845,692.132874 696.258240,688.193420 
	C691.479675,686.097778 686.558838,684.649414 681.255920,685.295898 
	C678.225464,685.665222 675.755737,686.893188 675.205322,690.239990 
	C674.672058,693.482239 675.565247,696.095642 678.717224,697.756409 
	C682.299316,699.643860 686.178162,700.573120 690.031128,701.590393 
	C694.872437,702.868774 699.649841,704.276550 703.950623,706.942932 
	C716.308838,714.604614 716.499512,733.136536 704.196899,740.925903 
	C694.262085,747.216064 683.532043,746.296936 672.834534,743.587891 
	C667.493286,742.235229 662.588318,739.653015 658.195984,736.239380 
	C657.038879,735.340027 655.294922,734.338074 656.377869,732.670044 
	C658.362305,729.613647 660.545715,726.632935 663.019958,723.967651 
	C664.557373,722.311523 666.095703,724.196960 667.353699,725.086914 
	C672.321350,728.601013 677.597473,731.276184 684.224731,731.765991 
z"/>
<path fill="#fff" opacity="1.000000" stroke="none" 
	d="
M346.383179,728.492126 
	C346.990967,728.141174 347.280823,727.975830 347.558899,727.792542 
	C354.274628,723.366882 354.146179,723.505920 360.176178,729.052490 
	C362.969574,731.621887 362.909149,733.240723 360.205750,735.836914 
	C349.897888,745.736389 332.817841,748.752441 318.705444,742.877380 
	C305.177612,737.245605 296.824768,724.398132 296.632507,709.508667 
	C296.429993,693.823853 302.908783,681.931641 316.978088,675.091858 
	C331.854858,667.859497 346.320526,669.331482 359.765991,679.380676 
	C363.003052,681.799988 363.209839,683.921997 360.241577,686.533447 
	C359.493530,687.191589 358.732483,687.886414 358.173340,688.699219 
	C355.287445,692.894653 352.700134,693.316284 348.174866,689.982117 
	C338.735657,683.027283 327.473755,683.914917 319.708984,691.141785 
	C311.858765,698.448181 310.182251,711.353577 315.830078,720.999939 
	C321.659912,730.957031 333.711884,734.014709 346.383179,728.492126 
z"/>
<path fill="#fff" opacity="1.000000" stroke="none" 
	d="
M400.037903,701.011841 
	C407.189392,700.995544 413.848236,701.055908 420.503571,700.930847 
	C423.885529,700.867310 425.476044,702.217773 425.213287,705.661682 
	C425.112305,706.985413 425.088562,708.334290 425.219757,709.652771 
	C425.605347,713.528442 423.838409,715.079712 420.037842,715.053223 
	C411.716919,714.995239 403.389252,715.304321 395.075378,715.071106 
	C390.635864,714.946594 388.815887,716.237305 388.960693,720.962219 
	C389.306732,732.249695 388.291718,730.590393 398.559814,730.679993 
	C407.213898,730.755554 415.873627,730.862183 424.521912,730.626160 
	C428.626282,730.514099 430.438019,731.954956 430.067261,736.062988 
	C429.977936,737.052856 429.952148,738.075195 430.092926,739.054443 
	C430.678650,743.129395 429.172852,744.584900 424.890747,744.504272 
	C411.247681,744.247192 397.596924,744.390503 383.949127,744.395935 
	C373.706665,744.400024 373.713776,744.411560 373.710022,734.261719 
	C373.704132,718.283752 373.667389,702.305786 373.704132,686.327942 
	C373.708160,684.582214 373.109283,682.687622 374.884338,680.475647 
	C379.290649,683.579834 383.751953,686.625977 388.093475,689.834167 
	C389.606964,690.952515 389.182434,692.864685 389.229431,694.504272 
	C389.415283,700.984558 389.409576,700.985168 396.048584,701.007935 
	C397.213654,701.011902 398.378693,701.010559 400.037903,701.011841 
z"/>
<path fill="#fff" opacity="1.000000" stroke="none" 
	d="
M513.317993,686.241455 
	C507.312531,683.521606 510.348541,678.648193 510.298981,674.807678 
	C510.258484,671.670471 513.654785,672.092163 515.836243,672.080444 
	C532.482788,671.991089 549.130066,672.067017 565.776733,671.996399 
	C569.608032,671.980164 571.348022,673.547729 570.904541,677.424927 
	C570.734863,678.908691 570.523315,680.429443 570.669800,681.899475 
	C571.035461,685.569641 569.223877,686.529907 565.921387,686.363464 
	C562.268127,686.179382 558.598694,686.308777 554.936279,686.317627 
	C548.252991,686.333862 548.238770,686.338806 548.235840,692.820679 
	C548.228943,707.969604 548.064026,723.121704 548.339600,738.265625 
	C548.427551,743.100098 546.913513,744.639282 542.105103,744.444519 
	C531.737793,744.024414 532.763306,745.424011 532.727600,734.984253 
	C532.678650,720.667786 532.503906,706.347046 532.799500,692.036682 
	C532.898315,687.254883 531.216187,685.909973 526.763184,686.225647 
	C522.457153,686.530762 518.111450,686.276306 513.317993,686.241455 
z"/>
<path fill="#fff" opacity="1.000000" stroke="none" 
	d="
M400.015015,383.015076 
	C394.381836,388.374664 388.914307,393.375122 382.482117,397.657318 
	C381.896515,379.891907 417.677155,337.766052 439.883301,330.802979 
	C431.040955,352.373077 415.699036,367.602417 400.015015,383.015076 
z"/>
<path fill="#fff" opacity="1.000000" stroke="none" 
	d="
M441.530182,447.612366 
	C445.597626,446.749817 448.649139,444.989227 451.309570,442.244781 
	C455.371002,438.055023 463.431000,437.314240 467.336914,440.479889 
	C473.165131,445.203461 474.946350,452.707581 471.551880,458.236481 
	C467.893188,464.195587 460.632477,466.727692 454.768372,463.965393 
	C453.286713,463.267456 451.739166,462.381134 450.674835,461.179962 
	C444.724091,454.464325 438.096100,454.245819 430.503754,458.267151 
	C424.637817,461.374115 419.137512,458.836700 417.621124,452.876953 
	C416.697205,449.245880 417.665314,446.187500 420.689453,444.075348 
	C423.487823,442.120941 426.599579,441.934479 429.574890,443.862549 
	C433.104950,446.150116 436.643311,448.323425 441.530182,447.612366 
z"/>
<path fill="#fff" opacity="1.000000" stroke="none" 
	d="
M410.998718,671.929626 
	C415.986084,671.943787 420.474274,672.003113 424.961426,671.957458 
	C428.051727,671.925964 429.306946,673.184326 429.399475,676.432556 
	C429.679626,686.267334 429.804565,686.266541 420.000275,686.281250 
	C411.024567,686.294739 402.019379,686.757019 393.081757,686.178467 
	C384.709442,685.636414 379.517914,679.306396 373.772675,673.839661 
	C386.139984,670.965942 398.366455,672.397705 410.998718,671.929626 
z"/>
<path fill="#fff" opacity="1.000000" stroke="none" 
	d="
M583.058350,399.827393 
	C584.590332,401.558350 585.926331,402.992462 587.260620,404.424683 
	C582.406799,408.954163 571.651367,408.361328 565.990540,402.669220 
	C560.862244,397.512573 556.459778,391.630493 551.783447,386.029785 
	C550.089111,384.000549 550.767883,382.406982 552.910706,381.176971 
	C555.027100,379.962097 557.319885,379.715759 559.662537,379.988281 
	C565.266357,380.640228 570.851868,381.456451 576.461792,382.044434 
	C579.304321,382.342377 580.182129,383.750488 579.683289,386.397980 
	C578.770142,391.244415 579.897278,395.614258 583.058350,399.827393 
z"/>
<path fill="#fff" opacity="1.000000" stroke="none" 
	d="
M468.087769,789.922363 
	C471.485443,794.004639 474.672607,797.802429 478.740967,802.650208 
	C478.740967,794.712952 478.682373,787.979431 478.777161,781.248108 
	C478.805145,779.261230 477.974457,776.255066 481.247711,776.253174 
	C484.359924,776.251343 483.897156,779.194946 483.920074,781.233826 
	C484.017303,789.893982 484.016876,798.555847 483.962616,807.216553 
	C483.951752,808.952393 484.515747,811.200195 482.335724,812.036133 
	C479.990143,812.935425 478.733398,811.039978 477.466522,809.462708 
	C471.330994,801.824158 465.183014,794.195496 458.125854,785.428406 
	C458.125854,792.419739 458.130432,798.129333 458.122986,803.838928 
	C458.120819,805.504150 458.144928,807.172974 458.046936,808.833618 
	C457.943665,810.583435 457.597931,812.278503 455.254181,812.111511 
	C453.258209,811.969360 452.936951,810.425415 452.907196,808.873779 
	C452.817810,804.211487 452.803162,799.547607 452.778564,794.884277 
	C452.753082,790.054077 452.719543,785.223511 452.754333,780.393616 
	C452.765930,778.780518 452.444611,776.830566 454.619934,776.273560 
	C456.477692,775.797852 457.787903,776.940125 458.869232,778.293518 
	C461.883301,782.065918 464.876038,785.855225 468.087769,789.922363 
z"/>
<path fill="#fff" opacity="1.000000" stroke="none" 
	d="
M528.410522,787.130737 
	C528.553833,794.093567 528.074158,800.581787 528.760925,807.063599 
	C528.943909,808.790405 529.260132,811.075623 527.366211,812.006897 
	C525.080933,813.130554 523.731812,811.149109 522.478516,809.591797 
	C516.333130,801.955994 510.208160,794.303833 503.078094,785.413086 
	C503.078094,792.895752 503.257935,799.070862 502.989166,805.226257 
	C502.882294,807.674072 504.513855,812.027649 500.277954,811.915527 
	C496.160889,811.806641 497.852539,807.526672 497.785950,805.041870 
	C497.572021,797.059937 497.670807,789.068359 497.727600,781.081116 
	C497.739899,779.348694 497.070618,777.055054 499.359924,776.319885 
	C501.622223,775.593445 503.028229,777.388916 504.288818,778.961975 
	C509.490326,785.452637 514.658264,791.970215 519.858276,798.462097 
	C520.770569,799.601074 521.484314,800.968811 523.675415,801.794067 
	C523.675415,796.285828 523.675171,791.049255 523.675476,785.812622 
	C523.675598,783.982117 523.622864,782.149536 523.693298,780.321716 
	C523.761414,778.553528 523.368164,776.250977 526.042542,776.176758 
	C528.787048,776.100464 528.445801,778.337219 528.440186,780.160522 
	C528.433533,782.323669 528.420410,784.486755 528.410522,787.130737 
z"/>
<path fill="#fff" opacity="1.000000" stroke="none" 
	d="
M438.941071,785.388672 
	C442.881531,793.879456 441.897278,801.523376 435.540833,807.749207 
	C430.170929,813.008728 423.335846,814.342041 416.121857,811.758789 
	C408.546661,809.046143 404.089050,802.007507 404.479248,793.864380 
	C404.915527,784.760864 409.820740,778.294495 417.896393,776.177124 
	C426.080292,774.031250 433.712646,777.275330 438.941071,785.388672 
M423.239532,808.225098 
	C425.761047,807.953857 428.094727,807.161377 430.191193,805.714417 
	C434.778168,802.548767 436.925873,796.117676 435.391113,790.148804 
	C434.043243,784.906860 429.374084,780.857117 424.060242,780.321106 
	C418.563477,779.766663 413.840790,782.680664 411.115112,787.764282 
	C406.334106,796.681335 413.059296,808.625610 423.239532,808.225098 
z"/>
<path fill="#fff" opacity="1.000000" stroke="none" 
	d="
M547.375916,802.858154 
	C547.105591,806.457886 548.476501,807.821411 551.739502,807.709717 
	C556.398132,807.550171 561.066956,807.647949 565.730713,807.698608 
	C567.353333,807.716248 569.322876,807.469116 569.435669,809.928833 
	C569.550781,812.440063 567.613159,812.334595 565.955627,812.340088 
	C559.459167,812.361633 552.962219,812.281616 546.466187,812.334229 
	C543.708862,812.356506 542.626831,811.142273 542.648315,808.411682 
	C542.722961,798.917175 542.716125,789.421448 542.655090,779.926758 
	C542.637451,777.183899 543.861877,775.938354 546.538696,775.939941 
	C552.868469,775.943787 559.198303,775.908203 565.527893,775.942749 
	C567.277039,775.952271 569.039246,776.301208 569.023804,778.562378 
	C569.007874,780.899780 567.130432,781.008728 565.438354,781.033203 
	C560.608398,781.102905 555.772278,781.243103 550.948181,781.077454 
	C546.881409,780.937927 547.368103,783.727722 547.425659,786.151428 
	C547.484741,788.635742 546.599976,791.843201 551.020752,791.700439 
	C555.014099,791.571411 559.016235,791.651978 563.013123,791.719666 
	C564.641541,791.747253 566.645935,791.584412 566.706116,793.996033 
	C566.766968,796.430542 564.799683,796.346741 563.139771,796.376038 
	C559.975586,796.431885 556.787292,796.646240 553.650269,796.352722 
	C548.977356,795.915466 546.629089,797.476807 547.375916,802.858154 
z"/>
<path fill="#fff" opacity="1.000000" stroke="none" 
	d="
M594.428345,813.054871 
	C578.844482,810.787170 573.097534,793.254700 582.335388,781.954956 
	C589.157776,773.609863 602.746277,773.286316 610.017151,781.404846 
	C608.498474,785.286743 606.345764,783.731201 603.874756,782.306274 
	C598.211548,779.040466 592.183594,779.734131 587.762268,783.889954 
	C583.154053,788.221436 581.938843,795.179688 584.804321,800.827332 
	C588.084290,807.291992 595.529663,809.852661 602.229858,806.772217 
	C603.430176,806.220276 604.591675,805.538330 605.666809,804.770447 
	C607.342224,803.573669 608.831848,803.666260 609.908386,805.402222 
	C610.994446,807.153503 609.594238,808.218323 608.395142,809.079712 
	C604.359436,811.978577 599.890747,813.540588 594.428345,813.054871 
z"/>
<path fill="#fff" opacity="1.000000" stroke="none" 
	d="
M384.702087,775.702698 
	C389.247498,776.549011 393.133545,777.793030 395.977692,781.167542 
	C394.524994,785.173035 392.403168,784.254700 389.752380,782.667664 
	C384.036499,779.245300 378.456604,779.565918 373.948761,783.255615 
	C369.780792,786.667053 368.129303,793.603821 370.134552,799.276123 
	C373.204834,807.961121 382.011993,810.788879 389.937622,805.636597 
	C391.656891,804.519043 393.485291,802.156677 395.389313,804.933899 
	C397.499756,808.012207 394.241455,808.983521 392.538422,810.126831 
	C385.933594,814.561279 377.186340,814.175720 370.999908,809.406311 
	C365.013367,804.791138 362.504425,795.945068 364.982941,788.191467 
	C367.446564,780.484436 373.607971,775.880859 381.764771,775.663818 
	C382.596710,775.641663 383.430115,775.674744 384.702087,775.702698 
z"/>
<path fill="#fff" opacity="1.000000" stroke="none" 
	d="
M631.078003,811.957642 
	C628.473877,807.721497 629.919922,803.345459 629.684448,799.111328 
	C629.444580,794.799622 629.396179,790.450989 629.672241,786.144592 
	C629.929688,782.127319 628.252869,780.895630 624.453125,780.927307 
	C622.126465,780.946716 618.092896,782.451843 618.078613,778.469238 
	C618.064087,774.428223 622.129211,776.100769 624.432373,775.997009 
	C630.075989,775.742676 635.739746,775.867798 641.393738,775.952942 
	C643.262756,775.981079 645.863953,775.374634 646.045166,778.312073 
	C646.233093,781.358459 643.598633,780.809692 641.722656,781.026428 
	C640.899414,781.121582 640.054199,781.173279 639.231567,781.101135 
	C635.614441,780.784363 634.200745,782.262451 634.316772,786.008362 
	C634.543274,793.319519 634.404419,800.643372 634.336914,807.961243 
	C634.319336,809.870422 634.699829,812.251099 631.078003,811.957642 
z"/>
<path fill="#fff" opacity="1.000000" stroke="none" 
	d="
M413.625427,543.392761 
	C406.052734,536.400574 399.660400,528.908875 394.983246,519.962585 
	C408.628357,530.372070 421.402222,541.644287 431.387482,555.861877 
	C424.655853,553.038025 419.329926,548.251526 413.625427,543.392761 
z"/>
</svg>