<?xml version="1.0" encoding="utf-8"?><svg viewBox="0 0 1024 1024" xmlns="http://www.w3.org/2000/svg" xmlns:xlink="http://www.w3.org/1999/xlink"><style>:root>svg{display:none}:root>svg:target{display:block}</style><svg viewBox="0 0 1024 1024" xml:space="preserve" id="logo" xmlns="http://www.w3.org/2000/svg"><path d="M587.672 303.62c10.297-1.52 19.457-4.15 26.77-11.81 3.688-3.862 9.036-5.549 14.71-5.042 2.351.21 3.916.906 3.192 3.71-.344 1.334-.322 2.742.463 3.873 3.614 5.203 2.649 10.66.228 15.705-2.769 5.767-.692 10.235 2.447 14.765 1.228 1.774 2.297 3.688 3.711 5.297 3.182 3.62 1.695 5.668-2.202 6.734-9.658 2.642-15.306 9.726-19.75 17.946-5.666 10.484-10.019 21.244-8.324 33.756.945 6.974-4.172 13.077-10.525 14.438-5.588 1.196-11.773-2.291-14.06-7.929-2.75-6.778-.667-12.702 5.543-16.8 10.868-7.173 15.695-18.452 18.689-30.273 4.17-16.465-.87-22.902-17.557-26.935-19.62-4.74-39.216-4.21-59.015-1.978-6.87.775-10.635 3.892-12.94 10.378-4.02 11.31-12.053 18.934-23.55 22.786-4.882 1.636-9.928 1.44-14.865 1.059-10.704-.828-20.048 2.76-28.71 8.368-18.117 11.728-32.204 27.8-46.31 43.8-5.173 5.866-10.037 11.932-13.925 18.834-4.758 8.445-7.117 17.11-5.126 26.719.448 2.163.585 4.335.058 6.446-2.633 10.55 1.311 19.655 6.421 28.364 6.05 10.31 14.498 18.65 23.21 26.673 10.412 9.587 20.626 19.462 32.735 26.97 9.687 6.006 19.833 9.33 31.732 7.642 11.562-1.64 22.431 2.003 30.515 10.604 8.943 9.516 19.906 12.858 32.286 13.104 18.179.362 36.28-.345 53.979-5.12 9.523-2.57 17.766-6.96 24.307-14.776 8.806-10.524 24.014-13.25 35.888-7.207 12.07 6.143 18.129 19.197 15.435 33.257-2.33 12.168-13.712 22.118-26.89 23.163-6.834.543-13.827-.567-18.747-5.336-9.335-9.05-20.798-11.739-32.897-12.241-20.571-.854-40.92.934-60.39 8.35-6.964 2.653-12.875 6.798-17.389 12.93-10.85 14.741-25.406 20.344-41.276 16.126-15.818-4.205-26.239-16.253-27.21-34.76-.88-16.776-7.934-29.958-18.943-41.699-16.126-17.2-33.428-33.043-54.072-44.74-7.813-4.428-16.22-5.746-25.473-4.895-17.939 1.65-37.342-11.596-39.035-33.926-1.837-24.211 15.153-42.16 39.402-42.17 10.843-.004 20.302-3.868 28.631-10.243 23.805-18.218 45.39-38.672 61.622-64.17 4.914-7.72 7.55-16.21 7.251-25.546-.576-18.042 12.013-31.624 25.052-36.036 15.176-5.136 31.895.307 41.462 13.975 4.875 6.963 12.185 7.892 19.255 8.727 17.907 2.114 35.87 1.764 54.187-.867m58.877 241.714c-1.205.17-2.543-.538-4.38 1.143 9.843-.328 16.316 4.755 22.16 11.051-3.458-7.237-9.824-10.29-17.78-12.194z"/><path d="M403.385 415.428c10.834-13.827 22.95-25.98 35.525-37.642 9.463-8.775 19.882-16.193 33.092-18.547 2.84-.506 5.633-.671 8.438-.399 21.141 2.054 37.42-10.99 44.024-28.4 1.56-4.116 3.72-5.786 7.968-5.894 3.471-.089 6.913-1.025 10.388-1.396 2.557-.273 5.217-.65 7.904 1.13-3.653 2.205-7.568 1.376-10.966 2.69-1.394.539-2.888.813-4.306 1.297-6.08 2.075-19.774 22.553-19.295 29.005.108 1.446.664 2.916 1.269 4.26 2.636 5.855 1.156 8.178-5.299 7.487-6.49-.694-12.898-.892-19.404-.029-27.026 3.585-46.492 17.803-59.001 41.762-3.946 7.557-6.867 15.544-7.425 24.174-.168 2.586-1.534 3.649-3.78 4.58-6.577 2.727-8.885 6.198-8.456 11.985.446 6.012 4.012 10.57 10.279 11.934 3.176.691 4.232 2.365 5.248 5.083 10.51 28.122 30.904 45.657 60.076 50.591 29.616 5.01 53.839-6.601 72.137-30.302 7.444-9.643 15.936-12.616 27.649-8.968 6.413 1.997 12.402 4.824 17.241 9.706 6.903 6.964 8.407 13.855 4.217 22.715-6.914 14.62-18.002 25.872-30.063 36.274-5.835 5.032-12.36 9.055-19.058 12.785-12.903 7.184-33.89 4.658-44.457-5.779-11.064-10.927-24.125-15.97-39.458-13.997-9.018 1.16-16.984-1.019-24.182-5.827-20.915-13.972-39.49-30.584-54.623-50.78-5.414-7.225-8.51-15.36-7.434-24.74.606-5.296.015-10.631-.286-15.96-.419-7.408 2.63-13.967 6.273-20.202 1.677-2.871 3.683-5.55 5.765-8.596z"/><path d="M507.04 484.195c10.29 1.865 19.3.273 26.753-7.006 1.284-1.254 2.718-2.182 4.446-1.247 2.875 1.554 6.103 2.548 8.5 4.836-4.79 11.567-25.233 21.445-40.364 20.359-25.968-1.864-40.677-19.783-43.678-32.277.534-1.414 1.926-1.06 2.963-1.42 6.286-2.184 10.762-7.772 11.179-13.984.514-7.664-2.747-13.756-9.063-16.934-5.629-2.832-5.496-2.768-2.696-8.585 13.765-28.595 47.725-33.005 70.486-19.071 3.74 2.29 6.725 5.424 9.667 8.615 1.734 1.88 1.842 3.45-.675 4.715-1.338.673-2.768 1.262-3.925 2.18-3.205 2.546-5.443 1.84-8.513-.875-14.636-12.946-37.11-6.672-45.16 12.339-8.247 19.474.828 41.693 20.08 48.355zM442.632 714c.01-12.487.157-24.476-.045-36.459-.07-4.116 1.334-5.692 5.443-5.555 10.807.36 21.646-.6 32.431.55 12.444 1.326 20.088 7.364 22.382 17.955 2.223 10.26-.966 22.011-12.178 27.429-.571.275-1.047.746-2.093 1.51l15.978 23.775-.707 1.442c-4.928 0-9.856.031-14.783-.017-1.73-.016-2.52-1.393-3.374-2.644-3.943-5.771-7.876-11.549-11.877-17.28-1.816-2.6-12.32-3.993-14.633-2.008-1.145.983-1.06 2.39-1.077 3.705-.064 4.66-.125 9.323-.095 13.983.019 2.828-.89 4.255-4.09 4.103-12.82-.61-11.137 2.063-11.276-11.01-.068-6.326-.008-12.653-.006-19.48m15.986-7.27c5.909 2.605 12.091 1.002 18.13.994 7.193-.01 11.148-4.11 11.144-10.614-.004-6.442-4.019-10.384-11.246-10.696-4.82-.207-9.658.01-14.484-.101-2.956-.069-4.307 1.19-4.227 4.14.14 5.154.221 10.309.683 16.277zm164.388 37.636c-24.127 6.288-42.255-7.562-42.324-31.97-.032-11.325.219-22.657-.118-33.972-.14-4.662 1.682-5.984 5.932-6.283 9.184-.645 9.725-.31 9.73 8.687.006 10.159.02 20.318.053 30.477.005 1.663-.038 3.352.223 4.984 1.585 9.921 8.207 15.816 17.138 15.357 8.853-.454 15.697-7.554 15.965-17.344.327-11.983.35-23.985.071-35.968-.114-4.895 1.682-6.75 6.337-6.32.495.047.998.001 1.498-.001 7.778-.042 7.79-.042 7.79 7.572.003 11.325.144 22.653-.063 33.974-.277 15.112-8.03 25.833-22.232 30.807zm61.219-12.599c3.427.058 6.442.335 9.224-1.186 5.277-2.884 5.592-8.06.662-11.519-2.516-1.764-5.523-2.24-8.394-3.058-3.996-1.137-8.063-2.066-11.985-3.417-10.266-3.537-15.71-11.099-14.908-20.362.937-10.807 7.55-18.308 18.126-20.354 11.348-2.196 21.758.556 31.59 6.219 2.28 1.314 2.85 2.648 1.43 5.22-4.84 8.774-4.73 8.824-13.712 4.884-4.778-2.095-9.7-3.544-15.002-2.897-3.03.37-5.5 1.597-6.05 4.944-.534 3.242.36 5.856 3.511 7.516 3.582 1.888 7.461 2.817 11.314 3.834 4.841 1.279 9.619 2.687 13.92 5.353 12.358 7.662 12.549 26.194.246 33.983-9.935 6.29-20.665 5.37-31.362 2.662-5.342-1.353-10.247-3.935-14.639-7.349-1.157-.899-2.901-1.9-1.818-3.569 1.984-3.056 4.168-6.037 6.642-8.702 1.537-1.656 3.076.229 4.334 1.119 4.967 3.514 10.243 6.19 16.87 6.679zm-337.842-3.274c.608-.35.898-.516 1.176-.7 6.716-4.425 6.587-4.286 12.617 1.26 2.794 2.57 2.733 4.189.03 6.785-10.308 9.9-27.388 12.915-41.5 7.04-13.528-5.631-21.881-18.479-22.073-33.368-.203-15.685 6.276-27.577 20.345-34.417 14.877-7.233 29.343-5.76 42.788 4.289 3.237 2.419 3.444 4.541.476 7.152-.748.659-1.51 1.353-2.069 2.166-2.886 4.196-5.473 4.617-9.998 1.283-9.44-6.955-20.701-6.067-28.466 1.16-7.85 7.306-9.527 20.212-3.879 29.858 5.83 9.957 17.882 13.015 30.553 7.492zm53.655-27.48c7.151-.016 13.81.044 20.466-.081 3.382-.064 4.972 1.287 4.71 4.73-.102 1.324-.125 2.673.006 3.992.385 3.875-1.382 5.427-5.182 5.4-8.321-.058-16.649.251-24.963.018-4.44-.124-6.26 1.166-6.114 5.891.346 11.288-.67 9.628 9.599 9.718 8.654.076 17.314.182 25.962-.054 4.104-.112 5.916 1.329 5.545 5.437-.09.99-.115 2.012.026 2.991.586 4.075-.92 5.53-5.202 5.45-13.643-.257-27.294-.113-40.942-.108-10.242.004-10.235.016-10.239-10.134-.006-15.978-.043-31.956-.006-47.934.004-1.746-.595-3.64 1.18-5.852 4.407 3.104 8.868 6.15 13.21 9.358 1.513 1.119 1.088 3.03 1.135 4.67.186 6.48.18 6.481 6.82 6.504 1.165.004 2.33.003 3.989.004zm113.28-14.771c-6.005-2.72-2.97-7.593-3.019-11.433-.04-3.138 3.356-2.716 5.537-2.728 16.647-.089 33.294-.013 49.94-.084 3.832-.016 5.572 1.552 5.129 5.429-.17 1.484-.382 3.004-.235 4.474.365 3.67-1.446 4.63-4.749 4.464-3.653-.184-7.322-.054-10.985-.045-6.683.016-6.697.02-6.7 6.503-.007 15.149-.172 30.3.104 45.445.088 4.834-1.426 6.373-6.235 6.179-10.367-.42-9.342.979-9.377-9.46-.05-14.317-.224-28.638.072-42.948.098-4.782-1.584-6.127-6.037-5.811-4.306.305-8.652.05-13.445.015zM400.015 383.015c-5.633 5.36-11.1 10.36-17.533 14.642-.585-17.765 35.195-59.89 57.401-66.854-8.842 21.57-24.184 36.8-39.868 52.212z"/><path d="M441.53 447.612c4.068-.862 7.12-2.623 9.78-5.367 4.061-4.19 12.121-4.93 16.027-1.765 5.828 4.723 7.61 12.228 4.215 17.756-3.659 5.96-10.92 8.492-16.784 5.73-1.481-.699-3.029-1.585-4.093-2.786-5.95-6.716-12.579-6.934-20.171-2.913-5.866 3.107-11.366.57-12.883-5.39-.924-3.631.044-6.69 3.068-8.802 2.799-1.954 5.91-2.14 8.886-.212 3.53 2.287 7.068 4.46 11.955 3.75zM410.999 671.93c4.987.014 9.475.073 13.962.027 3.09-.031 4.346 1.227 4.438 4.476.28 9.834.406 9.834-9.399 9.848-8.975.014-17.98.476-26.918-.103-8.373-.542-13.564-6.872-19.31-12.338 12.368-2.874 24.594-1.442 37.227-1.91zm172.059-272.103a232.024 232.024 0 0 0 4.203 4.598c-4.854 4.53-15.61 3.936-21.27-1.756-5.129-5.156-9.531-11.039-14.208-16.64-1.694-2.028-1.015-3.622 1.128-4.852 2.116-1.215 4.409-1.461 6.752-1.189 5.603.652 11.189 1.468 16.799 2.056 2.842.298 3.72 1.706 3.221 4.354-.913 4.846.214 9.216 3.375 13.43zm-114.97 390.095c3.397 4.083 6.585 7.88 10.653 12.728 0-7.937-.059-14.67.036-21.402.028-1.987-.803-4.993 2.47-4.995 3.113-.002 2.65 2.942 2.673 4.98.097 8.661.097 17.323.043 25.984-.011 1.735.553 3.983-1.627 4.82-2.346.898-3.603-.997-4.87-2.574-6.135-7.639-12.283-15.268-19.34-24.035 0 6.992.004 12.701-.003 18.41-.002 1.666.022 3.335-.076 4.996-.103 1.75-.45 3.445-2.793 3.278-1.996-.143-2.317-1.687-2.347-3.238-.09-4.663-.104-9.326-.128-13.99-.026-4.83-.06-9.66-.025-14.49.012-1.613-.31-3.563 1.866-4.12 1.858-.476 3.168.666 4.25 2.02 3.013 3.772 6.006 7.561 9.218 11.628zm60.322-2.792c.144 6.964-.336 13.452.35 19.934.184 1.726.5 4.012-1.394 4.943-2.285 1.124-3.634-.858-4.887-2.415-6.146-7.636-12.27-15.288-19.4-24.179 0 7.483.179 13.658-.09 19.813-.107 2.448 1.525 6.802-2.711 6.69-4.117-.11-2.425-4.39-2.492-6.874-.214-7.982-.115-15.974-.058-23.96.012-1.733-.657-4.027 1.632-4.762 2.262-.727 3.668 1.069 4.929 2.642 5.201 6.49 10.37 13.008 15.57 19.5.912 1.14 1.625 2.507 3.816 3.332v-15.981c0-1.83-.052-3.663.018-5.491.068-1.768-.325-4.071 2.35-4.145 2.744-.077 2.403 2.16 2.397 3.984-.006 2.163-.02 4.326-.03 6.97zm-89.469-1.741c3.94 8.49 2.956 16.134-3.4 22.36-5.37 5.26-12.205 6.593-19.42 4.01-7.574-2.713-12.032-9.751-11.642-17.895.437-9.103 5.342-15.57 13.417-17.687 8.184-2.146 15.817 1.098 21.045 9.212m-15.701 22.836c2.521-.271 4.855-1.064 6.951-2.51 4.587-3.166 6.735-9.597 5.2-15.566-1.348-5.242-6.017-9.292-11.33-9.828-5.498-.554-10.22 2.36-12.946 7.443-4.78 8.917 1.944 20.862 12.125 20.461zm124.136-5.367c-.27 3.6 1.1 4.963 4.364 4.852 4.658-.16 9.327-.062 13.99-.011 1.623.017 3.593-.23 3.706 2.23.115 2.511-1.823 2.406-3.48 2.411-6.497.022-12.994-.058-19.49-.006-2.757.023-3.84-1.192-3.818-3.922.075-9.495.068-18.99.007-28.485-.018-2.743 1.207-3.989 3.884-3.987 6.33.004 12.66-.032 18.989.003 1.749.01 3.511.358 3.496 2.62-.016 2.337-1.894 2.446-3.586 2.47-4.83.07-9.666.21-14.49.044-4.067-.14-3.58 2.65-3.522 5.074.059 2.485-.826 5.692 3.595 5.55 3.993-.13 7.995-.049 11.992.019 1.629.027 3.633-.136 3.693 2.276.061 2.435-1.906 2.35-3.566 2.38-3.164.056-6.353.27-9.49-.023-4.673-.438-7.02 1.124-6.274 6.505zm47.052 10.197c-15.584-2.268-21.33-19.8-12.093-31.1 6.823-8.345 20.411-8.669 27.682-.55-1.519 3.882-3.671 2.326-6.142.901-5.663-3.266-11.691-2.572-16.113 1.584-4.608 4.331-5.823 11.29-2.958 16.937 3.28 6.465 10.726 9.026 17.426 5.945a21.173 21.173 0 0 0 3.437-2.002c1.675-1.196 3.165-1.104 4.241.632 1.086 1.752-.314 2.816-1.513 3.678-4.036 2.899-8.504 4.46-13.967 3.975zm-209.726-37.352c4.545.846 8.432 2.09 11.276 5.465-1.453 4.005-3.575 3.087-6.226 1.5-5.716-3.423-11.295-3.102-15.803.588-4.168 3.411-5.82 10.348-3.814 16.02 3.07 8.685 11.877 11.513 19.803 6.36 1.719-1.117 3.547-3.48 5.451-.702 2.11 3.078-1.148 4.05-2.85 5.193-6.605 4.434-15.353 4.049-21.54-.72-5.986-4.616-8.495-13.462-6.016-21.216 2.464-7.707 8.625-12.31 16.782-12.527.832-.022 1.665.01 2.937.039zm246.376 36.255c-2.604-4.237-1.158-8.613-1.394-12.847-.24-4.311-.288-8.66-.012-12.966.258-4.018-1.42-5.25-5.219-5.218-2.327.02-6.36 1.525-6.374-2.458-.015-4.04 4.05-2.368 6.353-2.472 5.644-.254 11.308-.13 16.962-.044 1.869.028 4.47-.578 4.651 2.36.188 3.045-2.446 2.497-4.322 2.713-.824.096-1.669.147-2.491.075-3.618-.317-5.031 1.161-4.915 4.907.226 7.312.087 14.635.02 21.953-.018 1.91.363 4.29-3.259 3.997zM413.625 543.393c-7.572-6.992-13.965-14.484-18.642-23.43 13.645 10.41 26.42 21.681 36.404 35.899-6.731-2.824-12.057-7.61-17.762-12.47z"/></svg><svg viewBox="0 0 1024 1024" xml:space="preserve" id="logo-white" xmlns="http://www.w3.org/2000/svg"><path d="M587.672 303.62c10.297-1.52 19.457-4.15 26.77-11.81 3.688-3.862 9.036-5.549 14.71-5.042 2.351.21 3.916.906 3.192 3.71-.344 1.334-.322 2.742.463 3.873 3.614 5.203 2.649 10.66.228 15.705-2.769 5.767-.692 10.235 2.447 14.765 1.228 1.774 2.297 3.688 3.711 5.297 3.182 3.62 1.695 5.668-2.202 6.734-9.658 2.642-15.306 9.726-19.75 17.946-5.666 10.484-10.019 21.244-8.324 33.756.945 6.974-4.172 13.077-10.525 14.438-5.588 1.196-11.773-2.291-14.06-7.929-2.75-6.778-.667-12.702 5.543-16.8 10.868-7.173 15.695-18.452 18.689-30.273 4.17-16.465-.87-22.902-17.557-26.935-19.62-4.74-39.216-4.21-59.015-1.978-6.87.775-10.635 3.892-12.94 10.378-4.02 11.31-12.053 18.934-23.55 22.786-4.882 1.636-9.928 1.44-14.865 1.059-10.704-.828-20.048 2.76-28.71 8.368-18.117 11.728-32.204 27.8-46.31 43.8-5.173 5.866-10.037 11.932-13.925 18.834-4.758 8.445-7.117 17.11-5.126 26.719.448 2.163.585 4.335.058 6.446-2.633 10.55 1.311 19.655 6.421 28.364 6.05 10.31 14.498 18.65 23.21 26.673 10.412 9.587 20.626 19.462 32.735 26.97 9.687 6.006 19.833 9.33 31.732 7.642 11.562-1.64 22.431 2.003 30.515 10.604 8.943 9.516 19.906 12.858 32.286 13.104 18.179.362 36.28-.345 53.979-5.12 9.523-2.57 17.766-6.96 24.307-14.776 8.806-10.524 24.014-13.25 35.888-7.207 12.07 6.143 18.129 19.197 15.435 33.257-2.33 12.168-13.712 22.118-26.89 23.163-6.834.543-13.827-.567-18.747-5.336-9.335-9.05-20.798-11.739-32.897-12.241-20.571-.854-40.92.934-60.39 8.35-6.964 2.653-12.875 6.798-17.389 12.93-10.85 14.741-25.406 20.344-41.276 16.126-15.818-4.205-26.239-16.253-27.21-34.76-.88-16.776-7.934-29.958-18.943-41.699-16.126-17.2-33.428-33.043-54.072-44.74-7.813-4.428-16.22-5.746-25.473-4.895-17.939 1.65-37.342-11.596-39.035-33.926-1.837-24.211 15.153-42.16 39.402-42.17 10.843-.004 20.302-3.868 28.631-10.243 23.805-18.218 45.39-38.672 61.622-64.17 4.914-7.72 7.55-16.21 7.251-25.546-.576-18.042 12.013-31.624 25.052-36.036 15.176-5.136 31.895.307 41.462 13.975 4.875 6.963 12.185 7.892 19.255 8.727 17.907 2.114 35.87 1.764 54.187-.867m58.877 241.714c-1.205.17-2.543-.538-4.38 1.143 9.843-.328 16.316 4.755 22.16 11.051-3.458-7.237-9.824-10.29-17.78-12.194z"/><path d="M403.385 415.428c10.834-13.827 22.95-25.98 35.525-37.642 9.463-8.775 19.882-16.193 33.092-18.547 2.84-.506 5.633-.671 8.438-.399 21.141 2.054 37.42-10.99 44.024-28.4 1.56-4.116 3.72-5.786 7.968-5.894 3.471-.089 6.913-1.025 10.388-1.396 2.557-.273 5.217-.65 7.904 1.13-3.653 2.205-7.568 1.376-10.966 2.69-1.394.539-2.888.813-4.306 1.297-6.08 2.075-19.774 22.553-19.295 29.005.108 1.446.664 2.916 1.269 4.26 2.636 5.855 1.156 8.178-5.299 7.487-6.49-.694-12.898-.892-19.404-.029-27.026 3.585-46.492 17.803-59.001 41.762-3.946 7.557-6.867 15.544-7.425 24.174-.168 2.586-1.534 3.649-3.78 4.58-6.577 2.727-8.885 6.198-8.456 11.985.446 6.012 4.012 10.57 10.279 11.934 3.176.691 4.232 2.365 5.248 5.083 10.51 28.122 30.904 45.657 60.076 50.591 29.616 5.01 53.839-6.601 72.137-30.302 7.444-9.643 15.936-12.616 27.649-8.968 6.413 1.997 12.402 4.824 17.241 9.706 6.903 6.964 8.407 13.855 4.217 22.715-6.914 14.62-18.002 25.872-30.063 36.274-5.835 5.032-12.36 9.055-19.058 12.785-12.903 7.184-33.89 4.658-44.457-5.779-11.064-10.927-24.125-15.97-39.458-13.997-9.018 1.16-16.984-1.019-24.182-5.827-20.915-13.972-39.49-30.584-54.623-50.78-5.414-7.225-8.51-15.36-7.434-24.74.606-5.296.015-10.631-.286-15.96-.419-7.408 2.63-13.967 6.273-20.202 1.677-2.871 3.683-5.55 5.765-8.596z"/><path d="M507.04 484.195c10.29 1.865 19.3.273 26.753-7.006 1.284-1.254 2.718-2.182 4.446-1.247 2.875 1.554 6.103 2.548 8.5 4.836-4.79 11.567-25.233 21.445-40.364 20.359-25.968-1.864-40.677-19.783-43.678-32.277.534-1.414 1.926-1.06 2.963-1.42 6.286-2.184 10.762-7.772 11.179-13.984.514-7.664-2.747-13.756-9.063-16.934-5.629-2.832-5.496-2.768-2.696-8.585 13.765-28.595 47.725-33.005 70.486-19.071 3.74 2.29 6.725 5.424 9.667 8.615 1.734 1.88 1.842 3.45-.675 4.715-1.338.673-2.768 1.262-3.925 2.18-3.205 2.546-5.443 1.84-8.513-.875-14.636-12.946-37.11-6.672-45.16 12.339-8.247 19.474.828 41.693 20.08 48.355zM442.632 714c.01-12.487.157-24.476-.045-36.459-.07-4.116 1.334-5.692 5.443-5.555 10.807.36 21.646-.6 32.431.55 12.444 1.326 20.088 7.364 22.382 17.955 2.223 10.26-.966 22.011-12.178 27.429-.571.275-1.047.746-2.093 1.51l15.978 23.775-.707 1.442c-4.928 0-9.856.031-14.783-.017-1.73-.016-2.52-1.393-3.374-2.644-3.943-5.771-7.876-11.549-11.877-17.28-1.816-2.6-12.32-3.993-14.633-2.008-1.145.983-1.06 2.39-1.077 3.705-.064 4.66-.125 9.323-.095 13.983.019 2.828-.89 4.255-4.09 4.103-12.82-.61-11.137 2.063-11.276-11.01-.068-6.326-.008-12.653-.006-19.48m15.986-7.27c5.909 2.605 12.091 1.002 18.13.994 7.193-.01 11.148-4.11 11.144-10.614-.004-6.442-4.019-10.384-11.246-10.696-4.82-.207-9.658.01-14.484-.101-2.956-.069-4.307 1.19-4.227 4.14.14 5.154.221 10.309.683 16.277zm164.388 37.636c-24.127 6.288-42.255-7.562-42.324-31.97-.032-11.325.219-22.657-.118-33.972-.14-4.662 1.682-5.984 5.932-6.283 9.184-.645 9.725-.31 9.73 8.687.006 10.159.02 20.318.053 30.477.005 1.663-.038 3.352.223 4.984 1.585 9.921 8.207 15.816 17.138 15.357 8.853-.454 15.697-7.554 15.965-17.344.327-11.983.35-23.985.071-35.968-.114-4.895 1.682-6.75 6.337-6.32.495.047.998.001 1.498-.001 7.778-.042 7.79-.042 7.79 7.572.003 11.325.144 22.653-.063 33.974-.277 15.112-8.03 25.833-22.232 30.807zm61.219-12.599c3.427.058 6.442.335 9.224-1.186 5.277-2.884 5.592-8.06.662-11.519-2.516-1.764-5.523-2.24-8.394-3.058-3.996-1.137-8.063-2.066-11.985-3.417-10.266-3.537-15.71-11.099-14.908-20.362.937-10.807 7.55-18.308 18.126-20.354 11.348-2.196 21.758.556 31.59 6.219 2.28 1.314 2.85 2.648 1.43 5.22-4.84 8.774-4.73 8.824-13.712 4.884-4.778-2.095-9.7-3.544-15.002-2.897-3.03.37-5.5 1.597-6.05 4.944-.534 3.242.36 5.856 3.511 7.516 3.582 1.888 7.461 2.817 11.314 3.834 4.841 1.279 9.619 2.687 13.92 5.353 12.358 7.662 12.549 26.194.246 33.983-9.935 6.29-20.665 5.37-31.362 2.662-5.342-1.353-10.247-3.935-14.639-7.349-1.157-.899-2.901-1.9-1.818-3.569 1.984-3.056 4.168-6.037 6.642-8.702 1.537-1.656 3.076.229 4.334 1.119 4.967 3.514 10.243 6.19 16.87 6.679zm-337.842-3.274c.608-.35.898-.516 1.176-.7 6.716-4.425 6.587-4.286 12.617 1.26 2.794 2.57 2.733 4.189.03 6.785-10.308 9.9-27.388 12.915-41.5 7.04-13.528-5.631-21.881-18.479-22.073-33.368-.203-15.685 6.276-27.577 20.345-34.417 14.877-7.233 29.343-5.76 42.788 4.289 3.237 2.419 3.444 4.541.476 7.152-.748.659-1.51 1.353-2.069 2.166-2.886 4.196-5.473 4.617-9.998 1.283-9.44-6.955-20.701-6.067-28.466 1.16-7.85 7.306-9.527 20.212-3.879 29.858 5.83 9.957 17.882 13.015 30.553 7.492zm53.655-27.48c7.151-.016 13.81.044 20.466-.081 3.382-.064 4.972 1.287 4.71 4.73-.102 1.324-.125 2.673.006 3.992.385 3.875-1.382 5.427-5.182 5.4-8.321-.058-16.649.251-24.963.018-4.44-.124-6.26 1.166-6.114 5.891.346 11.288-.67 9.628 9.599 9.718 8.654.076 17.314.182 25.962-.054 4.104-.112 5.916 1.329 5.545 5.437-.09.99-.115 2.012.026 2.991.586 4.075-.92 5.53-5.202 5.45-13.643-.257-27.294-.113-40.942-.108-10.242.004-10.235.016-10.239-10.134-.006-15.978-.043-31.956-.006-47.934.004-1.746-.595-3.64 1.18-5.852 4.407 3.104 8.868 6.15 13.21 9.358 1.513 1.119 1.088 3.03 1.135 4.67.186 6.48.18 6.481 6.82 6.504 1.165.004 2.33.003 3.989.004zm113.28-14.771c-6.005-2.72-2.97-7.593-3.019-11.433-.04-3.138 3.356-2.716 5.537-2.728 16.647-.089 33.294-.013 49.94-.084 3.832-.016 5.572 1.552 5.129 5.429-.17 1.484-.382 3.004-.235 4.474.365 3.67-1.446 4.63-4.749 4.464-3.653-.184-7.322-.054-10.985-.045-6.683.016-6.697.02-6.7 6.503-.007 15.149-.172 30.3.104 45.445.088 4.834-1.426 6.373-6.235 6.179-10.367-.42-9.342.979-9.377-9.46-.05-14.317-.224-28.638.072-42.948.098-4.782-1.584-6.127-6.037-5.811-4.306.305-8.652.05-13.445.015zM400.015 383.015c-5.633 5.36-11.1 10.36-17.533 14.642-.585-17.765 35.195-59.89 57.401-66.854-8.842 21.57-24.184 36.8-39.868 52.212z"/><path d="M441.53 447.612c4.068-.862 7.12-2.623 9.78-5.367 4.061-4.19 12.121-4.93 16.027-1.765 5.828 4.723 7.61 12.228 4.215 17.756-3.659 5.96-10.92 8.492-16.784 5.73-1.481-.699-3.029-1.585-4.093-2.786-5.95-6.716-12.579-6.934-20.171-2.913-5.866 3.107-11.366.57-12.883-5.39-.924-3.631.044-6.69 3.068-8.802 2.799-1.954 5.91-2.14 8.886-.212 3.53 2.287 7.068 4.46 11.955 3.75zM410.999 671.93c4.987.014 9.475.073 13.962.027 3.09-.031 4.346 1.227 4.438 4.476.28 9.834.406 9.834-9.399 9.848-8.975.014-17.98.476-26.918-.103-8.373-.542-13.564-6.872-19.31-12.338 12.368-2.874 24.594-1.442 37.227-1.91zm172.059-272.103a232.024 232.024 0 0 0 4.203 4.598c-4.854 4.53-15.61 3.936-21.27-1.756-5.129-5.156-9.531-11.039-14.208-16.64-1.694-2.028-1.015-3.622 1.128-4.852 2.116-1.215 4.409-1.461 6.752-1.189 5.603.652 11.189 1.468 16.799 2.056 2.842.298 3.72 1.706 3.221 4.354-.913 4.846.214 9.216 3.375 13.43zm-114.97 390.095c3.397 4.083 6.585 7.88 10.653 12.728 0-7.937-.059-14.67.036-21.402.028-1.987-.803-4.993 2.47-4.995 3.113-.002 2.65 2.942 2.673 4.98.097 8.661.097 17.323.043 25.984-.011 1.735.553 3.983-1.627 4.82-2.346.898-3.603-.997-4.87-2.574-6.135-7.639-12.283-15.268-19.34-24.035 0 6.992.004 12.701-.003 18.41-.002 1.666.022 3.335-.076 4.996-.103 1.75-.45 3.445-2.793 3.278-1.996-.143-2.317-1.687-2.347-3.238-.09-4.663-.104-9.326-.128-13.99-.026-4.83-.06-9.66-.025-14.49.012-1.613-.31-3.563 1.866-4.12 1.858-.476 3.168.666 4.25 2.02 3.013 3.772 6.006 7.561 9.218 11.628zm60.322-2.792c.144 6.964-.336 13.452.35 19.934.184 1.726.5 4.012-1.394 4.943-2.285 1.124-3.634-.858-4.887-2.415-6.146-7.636-12.27-15.288-19.4-24.179 0 7.483.179 13.658-.09 19.813-.107 2.448 1.525 6.802-2.711 6.69-4.117-.11-2.425-4.39-2.492-6.874-.214-7.982-.115-15.974-.058-23.96.012-1.733-.657-4.027 1.632-4.762 2.262-.727 3.668 1.069 4.929 2.642 5.201 6.49 10.37 13.008 15.57 19.5.912 1.14 1.625 2.507 3.816 3.332v-15.981c0-1.83-.052-3.663.018-5.491.068-1.768-.325-4.071 2.35-4.145 2.744-.077 2.403 2.16 2.397 3.984-.006 2.163-.02 4.326-.03 6.97zm-89.469-1.741c3.94 8.49 2.956 16.134-3.4 22.36-5.37 5.26-12.205 6.593-19.42 4.01-7.574-2.713-12.032-9.751-11.642-17.895.437-9.103 5.342-15.57 13.417-17.687 8.184-2.146 15.817 1.098 21.045 9.212m-15.701 22.836c2.521-.271 4.855-1.064 6.951-2.51 4.587-3.166 6.735-9.597 5.2-15.566-1.348-5.242-6.017-9.292-11.33-9.828-5.498-.554-10.22 2.36-12.946 7.443-4.78 8.917 1.944 20.862 12.125 20.461zm124.136-5.367c-.27 3.6 1.1 4.963 4.364 4.852 4.658-.16 9.327-.062 13.99-.011 1.623.017 3.593-.23 3.706 2.23.115 2.511-1.823 2.406-3.48 2.411-6.497.022-12.994-.058-19.49-.006-2.757.023-3.84-1.192-3.818-3.922.075-9.495.068-18.99.007-28.485-.018-2.743 1.207-3.989 3.884-3.987 6.33.004 12.66-.032 18.989.003 1.749.01 3.511.358 3.496 2.62-.016 2.337-1.894 2.446-3.586 2.47-4.83.07-9.666.21-14.49.044-4.067-.14-3.58 2.65-3.522 5.074.059 2.485-.826 5.692 3.595 5.55 3.993-.13 7.995-.049 11.992.019 1.629.027 3.633-.136 3.693 2.276.061 2.435-1.906 2.35-3.566 2.38-3.164.056-6.353.27-9.49-.023-4.673-.438-7.02 1.124-6.274 6.505zm47.052 10.197c-15.584-2.268-21.33-19.8-12.093-31.1 6.823-8.345 20.411-8.669 27.682-.55-1.519 3.882-3.671 2.326-6.142.901-5.663-3.266-11.691-2.572-16.113 1.584-4.608 4.331-5.823 11.29-2.958 16.937 3.28 6.465 10.726 9.026 17.426 5.945a21.173 21.173 0 0 0 3.437-2.002c1.675-1.196 3.165-1.104 4.241.632 1.086 1.752-.314 2.816-1.513 3.678-4.036 2.899-8.504 4.46-13.967 3.975zm-209.726-37.352c4.545.846 8.432 2.09 11.276 5.465-1.453 4.005-3.575 3.087-6.226 1.5-5.716-3.423-11.295-3.102-15.803.588-4.168 3.411-5.82 10.348-3.814 16.02 3.07 8.685 11.877 11.513 19.803 6.36 1.719-1.117 3.547-3.48 5.451-.702 2.11 3.078-1.148 4.05-2.85 5.193-6.605 4.434-15.353 4.049-21.54-.72-5.986-4.616-8.495-13.462-6.016-21.216 2.464-7.707 8.625-12.31 16.782-12.527.832-.022 1.665.01 2.937.039zm246.376 36.255c-2.604-4.237-1.158-8.613-1.394-12.847-.24-4.311-.288-8.66-.012-12.966.258-4.018-1.42-5.25-5.219-5.218-2.327.02-6.36 1.525-6.374-2.458-.015-4.04 4.05-2.368 6.353-2.472 5.644-.254 11.308-.13 16.962-.044 1.869.028 4.47-.578 4.651 2.36.188 3.045-2.446 2.497-4.322 2.713-.824.096-1.669.147-2.491.075-3.618-.317-5.031 1.161-4.915 4.907.226 7.312.087 14.635.02 21.953-.018 1.91.363 4.29-3.259 3.997zM413.625 543.393c-7.572-6.992-13.965-14.484-18.642-23.43 13.645 10.41 26.42 21.681 36.404 35.899-6.731-2.824-12.057-7.61-17.762-12.47z"/></svg></svg>